0
SECTION
2
ENTITIES
0
LWPOLYLINE
8
0
90
26
70
1
10
192.5000
20
0.0000
10
149.8232
20
103.0129
10
149.6654
20
103.4099
10
149.5188
20
103.8112
10
149.3838
20
104.2166
10
149.2604
20
104.6256
10
149.1486
20
105.0380
10
149.0487
20
105.4534
10
148.9606
20
105.8715
10
148.8845
20
106.2919
10
148.8204
20
106.7143
10
148.7683
20
107.1384
10
142.5000
20
165.0000
10
147.5000
20
165.0000
10
153.7683
20
107.1384
10
153.8204
20
106.7143
10
153.8845
20
106.2919
10
153.9606
20
105.8715
10
154.0487
20
105.4534
10
154.1486
20
105.0380
10
154.2604
20
104.6256
10
154.3838
20
104.2166
10
154.5188
20
103.8112
10
154.6654
20
103.4099
10
154.8232
20
103.0129
10
197.5000
20
0.0000
0
ENDSEC
0
EOF
