solid funnel_rail_left
  facet normal 0.000000e+00 0.000000e+00 -1.000000e+00
    outer loop
      vertex -192.5000 0.0000 0.0000
      vertex -197.5000 0.0000 0.0000
      vertex -154.8232 103.0129 0.0000
    endloop
  endfacet
  facet normal 0.000000e+00 0.000000e+00 -1.000000e+00
    outer loop
      vertex -192.5000 0.0000 0.0000
      vertex -154.8232 103.0129 0.0000
      vertex -149.8232 103.0129 0.0000
    endloop
  endfacet
  facet normal 0.000000e+00 0.000000e+00 1.000000e+00
    outer loop
      vertex -192.5000 0.0000 50.0000
      vertex -149.8232 103.0129 50.0000
      vertex -154.8232 103.0129 50.0000
    endloop
  endfacet
  facet normal 0.000000e+00 -0.000000e+00 1.000000e+00
    outer loop
      vertex -192.5000 0.0000 50.0000
      vertex -154.8232 103.0129 50.0000
      vertex -197.5000 0.0000 50.0000
    endloop
  endfacet
  facet normal 9.238560e-01 -3.827403e-01 0.000000e+00
    outer loop
      vertex -192.5000 0.0000 0.0000
      vertex -149.8232 103.0129 0.0000
      vertex -149.8232 103.0129 50.0000
    endloop
  endfacet
  facet normal 9.238560e-01 -3.827403e-01 0.000000e+00
    outer loop
      vertex -192.5000 0.0000 0.0000
      vertex -149.8232 103.0129 50.0000
      vertex -192.5000 0.0000 50.0000
    endloop
  endfacet
  facet normal -9.238560e-01 3.827403e-01 0.000000e+00
    outer loop
      vertex -197.5000 0.0000 0.0000
      vertex -197.5000 0.0000 50.0000
      vertex -154.8232 103.0129 50.0000
    endloop
  endfacet
  facet normal -9.238560e-01 3.827403e-01 0.000000e+00
    outer loop
      vertex -197.5000 0.0000 0.0000
      vertex -154.8232 103.0129 50.0000
      vertex -154.8232 103.0129 0.0000
    endloop
  endfacet
  facet normal 0.000000e+00 0.000000e+00 -1.000000e+00
    outer loop
      vertex -149.8232 103.0129 0.0000
      vertex -154.8232 103.0129 0.0000
      vertex -154.6654 103.4099 0.0000
    endloop
  endfacet
  facet normal 0.000000e+00 0.000000e+00 -1.000000e+00
    outer loop
      vertex -149.8232 103.0129 0.0000
      vertex -154.6654 103.4099 0.0000
      vertex -149.6654 103.4099 0.0000
    endloop
  endfacet
  facet normal 0.000000e+00 -0.000000e+00 1.000000e+00
    outer loop
      vertex -149.8232 103.0129 50.0000
      vertex -149.6654 103.4099 50.0000
      vertex -154.6654 103.4099 50.0000
    endloop
  endfacet
  facet normal 0.000000e+00 0.000000e+00 1.000000e+00
    outer loop
      vertex -149.8232 103.0129 50.0000
      vertex -154.6654 103.4099 50.0000
      vertex -154.8232 103.0129 50.0000
    endloop
  endfacet
  facet normal 9.292132e-01 -3.695440e-01 0.000000e+00
    outer loop
      vertex -149.8232 103.0129 0.0000
      vertex -149.6654 103.4099 0.0000
      vertex -149.6654 103.4099 50.0000
    endloop
  endfacet
  facet normal 9.292132e-01 -3.695440e-01 0.000000e+00
    outer loop
      vertex -149.8232 103.0129 0.0000
      vertex -149.6654 103.4099 50.0000
      vertex -149.8232 103.0129 50.0000
    endloop
  endfacet
  facet normal -9.292132e-01 3.695440e-01 0.000000e+00
    outer loop
      vertex -154.8232 103.0129 0.0000
      vertex -154.8232 103.0129 50.0000
      vertex -154.6654 103.4099 50.0000
    endloop
  endfacet
  facet normal -9.292132e-01 3.695440e-01 0.000000e+00
    outer loop
      vertex -154.8232 103.0129 0.0000
      vertex -154.6654 103.4099 50.0000
      vertex -154.6654 103.4099 0.0000
    endloop
  endfacet
  facet normal 0.000000e+00 0.000000e+00 -1.000000e+00
    outer loop
      vertex -149.6654 103.4099 0.0000
      vertex -154.6654 103.4099 0.0000
      vertex -154.5188 103.8112 0.0000
    endloop
  endfacet
  facet normal 0.000000e+00 0.000000e+00 -1.000000e+00
    outer loop
      vertex -149.6654 103.4099 0.0000
      vertex -154.5188 103.8112 0.0000
      vertex -149.5188 103.8112 0.0000
    endloop
  endfacet
  facet normal 0.000000e+00 -0.000000e+00 1.000000e+00
    outer loop
      vertex -149.6654 103.4099 50.0000
      vertex -149.5188 103.8112 50.0000
      vertex -154.5188 103.8112 50.0000
    endloop
  endfacet
  facet normal 0.000000e+00 0.000000e+00 1.000000e+00
    outer loop
      vertex -149.6654 103.4099 50.0000
      vertex -154.5188 103.8112 50.0000
      vertex -154.6654 103.4099 50.0000
    endloop
  endfacet
  facet normal 9.393612e-01 -3.429292e-01 0.000000e+00
    outer loop
      vertex -149.6654 103.4099 0.0000
      vertex -149.5188 103.8112 0.0000
      vertex -149.5188 103.8112 50.0000
    endloop
  endfacet
  facet normal 9.393612e-01 -3.429292e-01 0.000000e+00
    outer loop
      vertex -149.6654 103.4099 0.0000
      vertex -149.5188 103.8112 50.0000
      vertex -149.6654 103.4099 50.0000
    endloop
  endfacet
  facet normal -9.393612e-01 3.429292e-01 0.000000e+00
    outer loop
      vertex -154.6654 103.4099 0.0000
      vertex -154.6654 103.4099 50.0000
      vertex -154.5188 103.8112 50.0000
    endloop
  endfacet
  facet normal -9.393612e-01 3.429292e-01 0.000000e+00
    outer loop
      vertex -154.6654 103.4099 0.0000
      vertex -154.5188 103.8112 50.0000
      vertex -154.5188 103.8112 0.0000
    endloop
  endfacet
  facet normal 0.000000e+00 0.000000e+00 -1.000000e+00
    outer loop
      vertex -149.5188 103.8112 0.0000
      vertex -154.5188 103.8112 0.0000
      vertex -154.3838 104.2166 0.0000
    endloop
  endfacet
  facet normal 0.000000e+00 0.000000e+00 -1.000000e+00
    outer loop
      vertex -149.5188 103.8112 0.0000
      vertex -154.3838 104.2166 0.0000
      vertex -149.3838 104.2166 0.0000
    endloop
  endfacet
  facet normal 0.000000e+00 -0.000000e+00 1.000000e+00
    outer loop
      vertex -149.5188 103.8112 50.0000
      vertex -149.3838 104.2166 50.0000
      vertex -154.3838 104.2166 50.0000
    endloop
  endfacet
  facet normal 0.000000e+00 0.000000e+00 1.000000e+00
    outer loop
      vertex -149.5188 103.8112 50.0000
      vertex -154.3838 104.2166 50.0000
      vertex -154.5188 103.8112 50.0000
    endloop
  endfacet
  facet normal 9.487471e-01 -3.160362e-01 0.000000e+00
    outer loop
      vertex -149.5188 103.8112 0.0000
      vertex -149.3838 104.2166 0.0000
      vertex -149.3838 104.2166 50.0000
    endloop
  endfacet
  facet normal 9.487471e-01 -3.160362e-01 0.000000e+00
    outer loop
      vertex -149.5188 103.8112 0.0000
      vertex -149.3838 104.2166 50.0000
      vertex -149.5188 103.8112 50.0000
    endloop
  endfacet
  facet normal -9.487471e-01 3.160362e-01 0.000000e+00
    outer loop
      vertex -154.5188 103.8112 0.0000
      vertex -154.5188 103.8112 50.0000
      vertex -154.3838 104.2166 50.0000
    endloop
  endfacet
  facet normal -9.487471e-01 3.160362e-01 0.000000e+00
    outer loop
      vertex -154.5188 103.8112 0.0000
      vertex -154.3838 104.2166 50.0000
      vertex -154.3838 104.2166 0.0000
    endloop
  endfacet
  facet normal 0.000000e+00 0.000000e+00 -1.000000e+00
    outer loop
      vertex -149.3838 104.2166 0.0000
      vertex -154.3838 104.2166 0.0000
      vertex -154.2604 104.6256 0.0000
    endloop
  endfacet
  facet normal 0.000000e+00 0.000000e+00 -1.000000e+00
    outer loop
      vertex -149.3838 104.2166 0.0000
      vertex -154.2604 104.6256 0.0000
      vertex -149.2604 104.6256 0.0000
    endloop
  endfacet
  facet normal 0.000000e+00 -0.000000e+00 1.000000e+00
    outer loop
      vertex -149.3838 104.2166 50.0000
      vertex -149.2604 104.6256 50.0000
      vertex -154.2604 104.6256 50.0000
    endloop
  endfacet
  facet normal 0.000000e+00 0.000000e+00 1.000000e+00
    outer loop
      vertex -149.3838 104.2166 50.0000
      vertex -154.2604 104.6256 50.0000
      vertex -154.3838 104.2166 50.0000
    endloop
  endfacet
  facet normal 9.573633e-01 -2.888867e-01 0.000000e+00
    outer loop
      vertex -149.3838 104.2166 0.0000
      vertex -149.2604 104.6256 0.0000
      vertex -149.2604 104.6256 50.0000
    endloop
  endfacet
  facet normal 9.573633e-01 -2.888867e-01 0.000000e+00
    outer loop
      vertex -149.3838 104.2166 0.0000
      vertex -149.2604 104.6256 50.0000
      vertex -149.3838 104.2166 50.0000
    endloop
  endfacet
  facet normal -9.573633e-01 2.888867e-01 0.000000e+00
    outer loop
      vertex -154.3838 104.2166 0.0000
      vertex -154.3838 104.2166 50.0000
      vertex -154.2604 104.6256 50.0000
    endloop
  endfacet
  facet normal -9.573633e-01 2.888867e-01 0.000000e+00
    outer loop
      vertex -154.3838 104.2166 0.0000
      vertex -154.2604 104.6256 50.0000
      vertex -154.2604 104.6256 0.0000
    endloop
  endfacet
  facet normal 0.000000e+00 0.000000e+00 -1.000000e+00
    outer loop
      vertex -149.2604 104.6256 0.0000
      vertex -154.2604 104.6256 0.0000
      vertex -154.1486 105.0380 0.0000
    endloop
  endfacet
  facet normal 0.000000e+00 0.000000e+00 -1.000000e+00
    outer loop
      vertex -149.2604 104.6256 0.0000
      vertex -154.1486 105.0380 0.0000
      vertex -149.1486 105.0380 0.0000
    endloop
  endfacet
  facet normal 0.000000e+00 -0.000000e+00 1.000000e+00
    outer loop
      vertex -149.2604 104.6256 50.0000
      vertex -149.1486 105.0380 50.0000
      vertex -154.1486 105.0380 50.0000
    endloop
  endfacet
  facet normal 0.000000e+00 0.000000e+00 1.000000e+00
    outer loop
      vertex -149.2604 104.6256 50.0000
      vertex -154.1486 105.0380 50.0000
      vertex -154.2604 104.6256 50.0000
    endloop
  endfacet
  facet normal 9.652027e-01 -2.615029e-01 0.000000e+00
    outer loop
      vertex -149.2604 104.6256 0.0000
      vertex -149.1486 105.0380 0.0000
      vertex -149.1486 105.0380 50.0000
    endloop
  endfacet
  facet normal 9.652027e-01 -2.615029e-01 0.000000e+00
    outer loop
      vertex -149.2604 104.6256 0.0000
      vertex -149.1486 105.0380 50.0000
      vertex -149.2604 104.6256 50.0000
    endloop
  endfacet
  facet normal -9.652027e-01 2.615029e-01 0.000000e+00
    outer loop
      vertex -154.2604 104.6256 0.0000
      vertex -154.2604 104.6256 50.0000
      vertex -154.1486 105.0380 50.0000
    endloop
  endfacet
  facet normal -9.652027e-01 2.615029e-01 0.000000e+00
    outer loop
      vertex -154.2604 104.6256 0.0000
      vertex -154.1486 105.0380 50.0000
      vertex -154.1486 105.0380 0.0000
    endloop
  endfacet
  facet normal 0.000000e+00 0.000000e+00 -1.000000e+00
    outer loop
      vertex -149.1486 105.0380 0.0000
      vertex -154.1486 105.0380 0.0000
      vertex -154.0487 105.4534 0.0000
    endloop
  endfacet
  facet normal 0.000000e+00 0.000000e+00 -1.000000e+00
    outer loop
      vertex -149.1486 105.0380 0.0000
      vertex -154.0487 105.4534 0.0000
      vertex -149.0487 105.4534 0.0000
    endloop
  endfacet
  facet normal 0.000000e+00 -0.000000e+00 1.000000e+00
    outer loop
      vertex -149.1486 105.0380 50.0000
      vertex -149.0487 105.4534 50.0000
      vertex -154.0487 105.4534 50.0000
    endloop
  endfacet
  facet normal 0.000000e+00 0.000000e+00 1.000000e+00
    outer loop
      vertex -149.1486 105.0380 50.0000
      vertex -154.0487 105.4534 50.0000
      vertex -154.1486 105.0380 50.0000
    endloop
  endfacet
  facet normal 9.722590e-01 -2.339069e-01 0.000000e+00
    outer loop
      vertex -149.1486 105.0380 0.0000
      vertex -149.0487 105.4534 0.0000
      vertex -149.0487 105.4534 50.0000
    endloop
  endfacet
  facet normal 9.722590e-01 -2.339069e-01 0.000000e+00
    outer loop
      vertex -149.1486 105.0380 0.0000
      vertex -149.0487 105.4534 50.0000
      vertex -149.1486 105.0380 50.0000
    endloop
  endfacet
  facet normal -9.722590e-01 2.339069e-01 0.000000e+00
    outer loop
      vertex -154.1486 105.0380 0.0000
      vertex -154.1486 105.0380 50.0000
      vertex -154.0487 105.4534 50.0000
    endloop
  endfacet
  facet normal -9.722590e-01 2.339069e-01 0.000000e+00
    outer loop
      vertex -154.1486 105.0380 0.0000
      vertex -154.0487 105.4534 50.0000
      vertex -154.0487 105.4534 0.0000
    endloop
  endfacet
  facet normal 0.000000e+00 0.000000e+00 -1.000000e+00
    outer loop
      vertex -149.0487 105.4534 0.0000
      vertex -154.0487 105.4534 0.0000
      vertex -153.9606 105.8715 0.0000
    endloop
  endfacet
  facet normal 0.000000e+00 0.000000e+00 -1.000000e+00
    outer loop
      vertex -149.0487 105.4534 0.0000
      vertex -153.9606 105.8715 0.0000
      vertex -148.9606 105.8715 0.0000
    endloop
  endfacet
  facet normal 0.000000e+00 -0.000000e+00 1.000000e+00
    outer loop
      vertex -149.0487 105.4534 50.0000
      vertex -148.9606 105.8715 50.0000
      vertex -153.9606 105.8715 50.0000
    endloop
  endfacet
  facet normal 0.000000e+00 0.000000e+00 1.000000e+00
    outer loop
      vertex -149.0487 105.4534 50.0000
      vertex -153.9606 105.8715 50.0000
      vertex -154.0487 105.4534 50.0000
    endloop
  endfacet
  facet normal 9.785265e-01 -2.061212e-01 0.000000e+00
    outer loop
      vertex -149.0487 105.4534 0.0000
      vertex -148.9606 105.8715 0.0000
      vertex -148.9606 105.8715 50.0000
    endloop
  endfacet
  facet normal 9.785265e-01 -2.061212e-01 0.000000e+00
    outer loop
      vertex -149.0487 105.4534 0.0000
      vertex -148.9606 105.8715 50.0000
      vertex -149.0487 105.4534 50.0000
    endloop
  endfacet
  facet normal -9.785265e-01 2.061212e-01 0.000000e+00
    outer loop
      vertex -154.0487 105.4534 0.0000
      vertex -154.0487 105.4534 50.0000
      vertex -153.9606 105.8715 50.0000
    endloop
  endfacet
  facet normal -9.785265e-01 2.061212e-01 0.000000e+00
    outer loop
      vertex -154.0487 105.4534 0.0000
      vertex -153.9606 105.8715 50.0000
      vertex -153.9606 105.8715 0.0000
    endloop
  endfacet
  facet normal 0.000000e+00 0.000000e+00 -1.000000e+00
    outer loop
      vertex -148.9606 105.8715 0.0000
      vertex -153.9606 105.8715 0.0000
      vertex -153.8845 106.2919 0.0000
    endloop
  endfacet
  facet normal 0.000000e+00 0.000000e+00 -1.000000e+00
    outer loop
      vertex -148.9606 105.8715 0.0000
      vertex -153.8845 106.2919 0.0000
      vertex -148.8845 106.2919 0.0000
    endloop
  endfacet
  facet normal 0.000000e+00 -0.000000e+00 1.000000e+00
    outer loop
      vertex -148.9606 105.8715 50.0000
      vertex -148.8845 106.2919 50.0000
      vertex -153.8845 106.2919 50.0000
    endloop
  endfacet
  facet normal 0.000000e+00 0.000000e+00 1.000000e+00
    outer loop
      vertex -148.9606 105.8715 50.0000
      vertex -153.8845 106.2919 50.0000
      vertex -153.9606 105.8715 50.0000
    endloop
  endfacet
  facet normal 9.840001e-01 -1.781682e-01 0.000000e+00
    outer loop
      vertex -148.9606 105.8715 0.0000
      vertex -148.8845 106.2919 0.0000
      vertex -148.8845 106.2919 50.0000
    endloop
  endfacet
  facet normal 9.840001e-01 -1.781682e-01 0.000000e+00
    outer loop
      vertex -148.9606 105.8715 0.0000
      vertex -148.8845 106.2919 50.0000
      vertex -148.9606 105.8715 50.0000
    endloop
  endfacet
  facet normal -9.840001e-01 1.781682e-01 0.000000e+00
    outer loop
      vertex -153.9606 105.8715 0.0000
      vertex -153.9606 105.8715 50.0000
      vertex -153.8845 106.2919 50.0000
    endloop
  endfacet
  facet normal -9.840001e-01 1.781682e-01 0.000000e+00
    outer loop
      vertex -153.9606 105.8715 0.0000
      vertex -153.8845 106.2919 50.0000
      vertex -153.8845 106.2919 0.0000
    endloop
  endfacet
  facet normal 0.000000e+00 0.000000e+00 -1.000000e+00
    outer loop
      vertex -148.8845 106.2919 0.0000
      vertex -153.8845 106.2919 0.0000
      vertex -153.8204 106.7143 0.0000
    endloop
  endfacet
  facet normal 0.000000e+00 0.000000e+00 -1.000000e+00
    outer loop
      vertex -148.8845 106.2919 0.0000
      vertex -153.8204 106.7143 0.0000
      vertex -148.8204 106.7143 0.0000
    endloop
  endfacet
  facet normal 0.000000e+00 -0.000000e+00 1.000000e+00
    outer loop
      vertex -148.8845 106.2919 50.0000
      vertex -148.8204 106.7143 50.0000
      vertex -153.8204 106.7143 50.0000
    endloop
  endfacet
  facet normal 0.000000e+00 0.000000e+00 1.000000e+00
    outer loop
      vertex -148.8845 106.2919 50.0000
      vertex -153.8204 106.7143 50.0000
      vertex -153.8845 106.2919 50.0000
    endloop
  endfacet
  facet normal 9.886753e-01 -1.500706e-01 0.000000e+00
    outer loop
      vertex -148.8845 106.2919 0.0000
      vertex -148.8204 106.7143 0.0000
      vertex -148.8204 106.7143 50.0000
    endloop
  endfacet
  facet normal 9.886753e-01 -1.500706e-01 0.000000e+00
    outer loop
      vertex -148.8845 106.2919 0.0000
      vertex -148.8204 106.7143 50.0000
      vertex -148.8845 106.2919 50.0000
    endloop
  endfacet
  facet normal -9.886753e-01 1.500706e-01 0.000000e+00
    outer loop
      vertex -153.8845 106.2919 0.0000
      vertex -153.8845 106.2919 50.0000
      vertex -153.8204 106.7143 50.0000
    endloop
  endfacet
  facet normal -9.886753e-01 1.500706e-01 0.000000e+00
    outer loop
      vertex -153.8845 106.2919 0.0000
      vertex -153.8204 106.7143 50.0000
      vertex -153.8204 106.7143 0.0000
    endloop
  endfacet
  facet normal 0.000000e+00 0.000000e+00 -1.000000e+00
    outer loop
      vertex -148.8204 106.7143 0.0000
      vertex -153.8204 106.7143 0.0000
      vertex -153.7683 107.1384 0.0000
    endloop
  endfacet
  facet normal 0.000000e+00 0.000000e+00 -1.000000e+00
    outer loop
      vertex -148.8204 106.7143 0.0000
      vertex -153.7683 107.1384 0.0000
      vertex -148.7683 107.1384 0.0000
    endloop
  endfacet
  facet normal 0.000000e+00 -0.000000e+00 1.000000e+00
    outer loop
      vertex -148.8204 106.7143 50.0000
      vertex -148.7683 107.1384 50.0000
      vertex -153.7683 107.1384 50.0000
    endloop
  endfacet
  facet normal 0.000000e+00 0.000000e+00 1.000000e+00
    outer loop
      vertex -148.8204 106.7143 50.0000
      vertex -153.7683 107.1384 50.0000
      vertex -153.8204 106.7143 50.0000
    endloop
  endfacet
  facet normal 9.925484e-01 -1.218513e-01 0.000000e+00
    outer loop
      vertex -148.8204 106.7143 0.0000
      vertex -148.7683 107.1384 0.0000
      vertex -148.7683 107.1384 50.0000
    endloop
  endfacet
  facet normal 9.925484e-01 -1.218513e-01 0.000000e+00
    outer loop
      vertex -148.8204 106.7143 0.0000
      vertex -148.7683 107.1384 50.0000
      vertex -148.8204 106.7143 50.0000
    endloop
  endfacet
  facet normal -9.925484e-01 1.218513e-01 0.000000e+00
    outer loop
      vertex -153.8204 106.7143 0.0000
      vertex -153.8204 106.7143 50.0000
      vertex -153.7683 107.1384 50.0000
    endloop
  endfacet
  facet normal -9.925484e-01 1.218513e-01 0.000000e+00
    outer loop
      vertex -153.8204 106.7143 0.0000
      vertex -153.7683 107.1384 50.0000
      vertex -153.7683 107.1384 0.0000
    endloop
  endfacet
  facet normal 0.000000e+00 0.000000e+00 -1.000000e+00
    outer loop
      vertex -148.7683 107.1384 0.0000
      vertex -153.7683 107.1384 0.0000
      vertex -147.5000 165.0000 0.0000
    endloop
  endfacet
  facet normal 0.000000e+00 0.000000e+00 -1.000000e+00
    outer loop
      vertex -148.7683 107.1384 0.0000
      vertex -147.5000 165.0000 0.0000
      vertex -142.5000 165.0000 0.0000
    endloop
  endfacet
  facet normal 0.000000e+00 0.000000e+00 1.000000e+00
    outer loop
      vertex -148.7683 107.1384 50.0000
      vertex -142.5000 165.0000 50.0000
      vertex -147.5000 165.0000 50.0000
    endloop
  endfacet
  facet normal 0.000000e+00 -0.000000e+00 1.000000e+00
    outer loop
      vertex -148.7683 107.1384 50.0000
      vertex -147.5000 165.0000 50.0000
      vertex -153.7683 107.1384 50.0000
    endloop
  endfacet
  facet normal 9.941831e-01 -1.077032e-01 0.000000e+00
    outer loop
      vertex -148.7683 107.1384 0.0000
      vertex -142.5000 165.0000 0.0000
      vertex -142.5000 165.0000 50.0000
    endloop
  endfacet
  facet normal 9.941831e-01 -1.077032e-01 0.000000e+00
    outer loop
      vertex -148.7683 107.1384 0.0000
      vertex -142.5000 165.0000 50.0000
      vertex -148.7683 107.1384 50.0000
    endloop
  endfacet
  facet normal -9.941831e-01 1.077032e-01 0.000000e+00
    outer loop
      vertex -153.7683 107.1384 0.0000
      vertex -153.7683 107.1384 50.0000
      vertex -147.5000 165.0000 50.0000
    endloop
  endfacet
  facet normal -9.941831e-01 1.077032e-01 0.000000e+00
    outer loop
      vertex -153.7683 107.1384 0.0000
      vertex -147.5000 165.0000 50.0000
      vertex -147.5000 165.0000 0.0000
    endloop
  endfacet
  facet normal 0.000000e+00 -1.000000e+00 0.000000e+00
    outer loop
      vertex -192.5000 0.0000 0.0000
      vertex -192.5000 0.0000 50.0000
      vertex -197.5000 0.0000 50.0000
    endloop
  endfacet
  facet normal 0.000000e+00 -1.000000e+00 0.000000e+00
    outer loop
      vertex -192.5000 0.0000 0.0000
      vertex -197.5000 0.0000 50.0000
      vertex -197.5000 0.0000 0.0000
    endloop
  endfacet
  facet normal 0.000000e+00 1.000000e+00 0.000000e+00
    outer loop
      vertex -142.5000 165.0000 0.0000
      vertex -147.5000 165.0000 0.0000
      vertex -147.5000 165.0000 50.0000
    endloop
  endfacet
  facet normal 0.000000e+00 1.000000e+00 -0.000000e+00
    outer loop
      vertex -142.5000 165.0000 0.0000
      vertex -147.5000 165.0000 50.0000
      vertex -142.5000 165.0000 50.0000
    endloop
  endfacet
endsolid funnel_rail_left
